<svg width="102" height="95" viewBox="0 0 102 95" fill="none" xmlns="http://www.w3.org/2000/svg">
<path d="M101.5 60C101.5 73.0939 93.1147 83.5 83 83.5C72.8853 83.5 64.5 73.0939 64.5 60C64.5 46.9061 72.8853 36.5 83 36.5C93.1147 36.5 101.5 46.9061 101.5 60Z" stroke="#FFFDFD"/>
<path d="M95.5 59C95.5 69.794 87.1934 78.5 77 78.5C66.8066 78.5 58.5 69.794 58.5 59C58.5 48.206 66.8066 39.5 77 39.5C87.1934 39.5 95.5 48.206 95.5 59Z" stroke="#FFFDFD"/>
<circle cx="14" cy="25" r="13.5" fill="#FFFBFB" stroke="#FFFDFD"/>
<circle cx="28" cy="21" r="13.5" fill="#FFFBFB" stroke="#FFFDFD"/>
<circle cx="70" cy="21" r="13.5" fill="#FFFBFB" stroke="#FFFDFD"/>
<circle cx="50" cy="14" r="13.5" fill="#FFFBFB" stroke="#FFFDFD"/>
<circle cx="49" cy="24" r="13.5" fill="#FFFBFB" stroke="#FFFDFD"/>
<rect x="3.5" y="24.5" width="76" height="70" rx="5.5" fill="#DD7D24" stroke="#FFFDFD"/>
<path d="M62.5 25C62.5 29.6456 61.7237 33.828 60.4874 36.8304C59.8688 38.3329 59.1448 39.5158 58.3665 40.3153C57.5896 41.1132 56.7901 41.5 56 41.5C55.2099 41.5 54.4104 41.1132 53.6335 40.3153C52.8552 39.5158 52.1312 38.3329 51.5126 36.8304C50.2763 33.828 49.5 29.6456 49.5 25C49.5 20.3544 50.2763 16.172 51.5126 13.1696C52.1312 11.6671 52.8552 10.4842 53.6335 9.68472C54.4104 8.88679 55.2099 8.5 56 8.5C56.7901 8.5 57.5896 8.88679 58.3665 9.68472C59.1448 10.4842 59.8688 11.6671 60.4874 13.1696C61.7237 16.172 62.5 20.3544 62.5 25Z" fill="#FFFBFB" stroke="#FFFDFD"/>
<line x1="19.5" y1="39" x2="19.5" y2="79" stroke="#FFFDFD"/>
<line x1="34.5" y1="39" x2="34.5" y2="79" stroke="#FFFDFD"/>
<line x1="49.5" y1="39" x2="49.5" y2="79" stroke="#FFFDFD"/>
<line x1="64.5" y1="39" x2="64.5" y2="79" stroke="#FFFDFD"/>
</svg>
